# xmcd
#
# Track frame offsets:
#	150
#	18849
#	32803
#	48403
#	63946
#	77136
#	90800
#	109875
#	124485
#	141260
#	155280
#	168438
#	186667
#	198993
#	215531
#	228243
#
# Disc length: 3241 seconds
#
# Revision: 0
# Processed by: cddbd v1.5.1PL0 Copyright (c) Steve Scherf et al.
# Submitted via: dBpowerAMP V4.0
#
DISCID=d80ca710
DTITLE=Earl Thomas Conley - Live at Billy Bob's
DYEAR=2004
DGENRE=Country
TTITLE0=Somewhere Between Right And Wrong
TTITLE1=Your Love's On The Line
TTITLE2=Don't Make It Easy On Me
TTITLE3=Angel In Disguise
TTITLE4=Chance Of Lovin' You
TTITLE5=Hard Days and Honky Tonk Nights
TTITLE6=What She Is (Is A Woman In Love)
TTITLE7=Holding Her and Loving You
TTITLE8=Once In A Blue Moon
TTITLE9=Brotherly Love
TTITLE10=Heavenly Bodies
TTITLE11=What I'd Say
TTITLE12=Fire And Smoke
TTITLE13=Love Don't Care (Whose Heart It Breaks)
TTITLE14=Shadow Of A Doubt
TTITLE15=I Can't Win For Losin'  You
EXTD=
EXTT0=
EXTT1=
EXTT2=
EXTT3=
EXTT4=
EXTT5=
EXTT6=
EXTT7=
EXTT8=
EXTT9=
EXTT10=
EXTT11=
EXTT12=
EXTT13=
EXTT14=
EXTT15=
PLAYORDER=
